<?xml version="1.0" encoding="UTF-8" standalone="no"?>
<!-- Created with Inkscape (http://www.inkscape.org/) -->

<svg
   xmlns:dc="http://purl.org/dc/elements/1.1/"
   xmlns:cc="http://creativecommons.org/ns#"
   xmlns:rdf="http://www.w3.org/1999/02/22-rdf-syntax-ns#"
   xmlns:svg="http://www.w3.org/2000/svg"
   xmlns="http://www.w3.org/2000/svg"
   xmlns:sodipodi="http://sodipodi.sourceforge.net/DTD/sodipodi-0.dtd"
   xmlns:inkscape="http://www.inkscape.org/namespaces/inkscape"
   id="svg2"
   version="1.1"
   inkscape:version="0.48.4 r9939"
   width="743.75"
   height="1052.5"
   xml:space="preserve"
   sodipodi:docname="person-bank.svg"><metadata
     id="metadata8"><rdf:RDF><cc:Work
         rdf:about=""><dc:format>image/svg+xml</dc:format><dc:type
           rdf:resource="http://purl.org/dc/dcmitype/StillImage" /></cc:Work></rdf:RDF></metadata><defs
     id="defs6"><clipPath
       clipPathUnits="userSpaceOnUse"
       id="clipPath38"><path
         d="m 148.56,771.12 210.96,0 0,12.72 -210.96,0 0,-12.72 z"
         clip-rule="evenodd"
         id="path40" /></clipPath><clipPath
       clipPathUnits="userSpaceOnUse"
       id="clipPath134"><path
         d="m 169.68,639.12 58.08,0 0,13.44 -58.08,0 0,-13.44 z"
         clip-rule="evenodd"
         id="path136" /></clipPath><clipPath
       clipPathUnits="userSpaceOnUse"
       id="clipPath154"><path
         d="m 148.56,597.12 210.96,0 0,12.72 -210.96,0 0,-12.72 z"
         clip-rule="evenodd"
         id="path156" /></clipPath><clipPath
       clipPathUnits="userSpaceOnUse"
       id="clipPath184"><path
         d="m 148.32,552 193.68,0 0,9.36 -193.68,0 0,-9.36 z"
         clip-rule="evenodd"
         id="path186" /></clipPath><clipPath
       clipPathUnits="userSpaceOnUse"
       id="clipPath286"><path
         d="m 168.24,471.84 58.08,0 0,13.68 -58.08,0 0,-13.68 z"
         clip-rule="evenodd"
         id="path288" /></clipPath></defs><sodipodi:namedview
     pagecolor="#ffffff"
     bordercolor="#666666"
     borderopacity="1"
     objecttolerance="10"
     gridtolerance="10"
     guidetolerance="10"
     inkscape:pageopacity="0"
     inkscape:pageshadow="2"
     inkscape:window-width="1680"
     inkscape:window-height="990"
     id="namedview4"
     showgrid="false"
     inkscape:zoom="4"
     inkscape:cx="304.87485"
     inkscape:cy="764.73576"
     inkscape:window-x="0"
     inkscape:window-y="0"
     inkscape:window-maximized="1"
     inkscape:current-layer="g10" /><g
     id="g10"
     inkscape:groupmode="layer"
     inkscape:label="КВ-20111021банк"
     transform="matrix(1.25,0,0,-1.25,0,1052.5)"
     style="display:inline"><g
       id="g14"><text
         id="text16"
         transform="matrix(0.9998,0,0,-1,69.12,770.64)"><tspan
           id="tspan18"
           sodipodi:role="line"
           y="0"
           x="0 5.5279307 10.567868 16.095798 21.383732 29.543631 34.831566 40.359497 45.887428"
           style="font-size:7.99989986px;font-variant:normal;font-weight:bold;writing-mode:lr-tb;fill:#000000;fill-opacity:1;fill-rule:nonzero;stroke:none;font-family:Arial;-inkscape-font-specification:Arial-BoldMT">ИЗВЕЩЕНИЕ</tspan></text>
</g><g
       id="g20"><text
         id="text22"
         transform="matrix(0.9998,0,0,-1,63.6,600)"><tspan
           id="tspan24"
           sodipodi:role="line"
           y="0"
           x="0 4.80794 10.335871 15.863802 20.903738 26.431669 31.9596 37.727528 43.255459"
           style="font-size:7.99989986px;font-variant:normal;font-weight:bold;writing-mode:lr-tb;fill:#000000;fill-opacity:1;fill-rule:nonzero;stroke:none;font-family:Arial;-inkscape-font-specification:Arial-BoldMT">КВИТАНЦИЯ</tspan></text>
</g><g
       id="g26"><path
         inkscape:connector-curvature="0"
         id="path28"
         style="fill:#000000;fill-opacity:1;fill-rule:nonzero;stroke:none"
         d="m 140.88,444.72 0.96,0 0,340.56 -0.96,0 0,-340.56 z" /></g><g
       id="g30"><path
         inkscape:connector-curvature="0"
         id="path32"
         style="fill:#000000;fill-opacity:1;fill-rule:nonzero;stroke:none"
         d="m 57.36,613.92 441.36,0 0,0.96 -441.36,0 0,-0.96 z" /></g><text
       id="text42"
       transform="scale(0.99989999,-1.0001)"
       x="148.57486"
       y="-772.72272"
       style="font-size:14.40000057px;font-style:normal;font-variant:normal;font-weight:bold;font-stretch:normal;text-align:start;line-height:125%;writing-mode:lr-tb;text-anchor:start;font-family:Liberation Serif;-inkscape-font-specification:Liberation Serif Bold"
       sodipodi:linespacing="125%"><tspan
         sodipodi:role="line"
         id="tspan3482"
         x="148.57486"
         y="-772.72272">Получатель платежа: </tspan></text>
<text
       transform="scale(0.9999,-1.0001)"
       id="text48"
       x="148.05197"
       y="-757.63"
       style="font-size:11.99879996px;-inkscape-font-specification:Liberation Serif;font-family:Liberation Serif;font-weight:normal;font-style:normal;font-stretch:normal;font-variant:normal;text-anchor:start;text-align:start;writing-mode:lr;line-height:125%"
       sodipodi:linespacing="125%"><tspan
         style="font-size:11.99879996px;font-variant:normal;font-weight:normal;writing-mode:lr;fill:#000000;fill-opacity:1;fill-rule:nonzero;stroke:none;font-family:Liberation Serif;-inkscape-font-specification:Liberation Serif;font-style:normal;font-stretch:normal;text-anchor:start;text-align:start;line-height:125%"
         x="148.05197 155.26117 162.23041 169.19965 172.07933"
         y="-757.63"
         sodipodi:role="line"
         id="tspan50">ИНН: </tspan></text>
<text
       transform="scale(0.9999,-1.0001)"
       id="text54"
       x="148.33484"
       y="-747.28528"
       style="font-size:11.20000006px;font-style:normal;font-variant:normal;font-weight:normal;font-stretch:normal;text-align:start;line-height:125%;writing-mode:lr;text-anchor:start;font-family:Liberation Sans;-inkscape-font-specification:Liberation Sans"
       sodipodi:linespacing="125%"><tspan
         sodipodi:role="line"
         id="tspan3183">р/сч </tspan></text>
<g
       id="g64"><text
         id="text66"
         transform="matrix(0.9998,0,0,-1,148.32,724.08)"><tspan
           id="tspan68"
           sodipodi:role="line"
           y="0"
           x="0 4.8099518 7.6899233 12.019879 17.05983 19.699802 24.739752 29.779703 34.819653 39.8596 44.899551 49.939499 54.97945 60.019402 65.059349 70.099297 75.139252 80.179199 85.219147 90.259094 95.299049 100.339 105.37894 110.4189 115.45885 120.49879 125.77874 131.53868 138.74861 145.46855 148.10852 153.14847 158.18842 163.22836 168.26831 173.30827 178.34822 183.38817 188.42812"
           style="font-size:9.99989986px;font-variant:normal;font-weight:normal;writing-mode:lr-tb;fill:#000000;fill-opacity:1;fill-rule:nonzero;stroke:none;font-family:TimesNewRomanPSMT;-inkscape-font-specification:TimesNewRomanPSMT">к/сч 30101810000000000920 БИК 044030920</tspan></text>
</g><g
       id="g70"><path
         inkscape:connector-curvature="0"
         id="path72"
         style="fill:#000000;fill-opacity:1;fill-rule:nonzero;stroke:none"
         d="m 141.36,717.36 359.28,0 0,0.96 -359.28,0 0,-0.96 z" /></g><g
       id="g74"><path
         inkscape:connector-curvature="0"
         id="path76"
         style="fill:#000000;fill-opacity:1;fill-rule:nonzero;stroke:none"
         d="m 141.36,696.96 359.28,0 0,0.96 -359.28,0 0,-0.96 z" /></g><g
       id="g78"><path
         inkscape:connector-curvature="0"
         id="path80"
         style="fill:#000000;fill-opacity:1;fill-rule:nonzero;stroke:none"
         d="m 141.36,677.52 359.28,0 0,0.96 -359.28,0 0,-0.96 z" /></g><g
       id="g82"><path
         inkscape:connector-curvature="0"
         id="path84"
         style="fill:#000000;fill-opacity:1;fill-rule:nonzero;stroke:none"
         d="m 141.36,663.36 359.28,0 0,0.96 -359.28,0 0,-0.96 z" /></g><g
       id="g86"><path
         inkscape:connector-curvature="0"
         id="path88"
         style="fill:#000000;fill-opacity:1;fill-rule:nonzero;stroke:none"
         d="m 141.36,636.24 359.28,0 0,0.96 -359.28,0 0,-0.96 z" /></g><g
       id="g90"><text
         id="text92"
         transform="matrix(0.9998,0,0,-1,278.64,692.4)"><tspan
           id="tspan94"
           sodipodi:role="line"
           y="0"
           x="0 1.926 5.7719998 8.4180002 12.498 15.384 18.504 21.389999 24.51 25.955999 27.162001 30.521999 34.362 37.007999 38.453999 40.133999 43.02 45.66 48.779999 51.425999 54.071999 56.952 59.598 62.958 64.403999 67.290001 70.410004 72.816002 75.456001 78.101997 81.222 83.627998 88.428001 91.314003 94.433998 96.839996"
           style="font-size:6px;font-variant:normal;font-weight:normal;writing-mode:lr-tb;fill:#000000;fill-opacity:1;fill-rule:nonzero;stroke:none;font-family:TimesNewRomanPSMT;-inkscape-font-specification:TimesNewRomanPSMT">(фамилия, имя, отчество плательщика)</tspan></text>
</g><text
       transform="scale(1.0322125,-0.96879274)"
       id="text98"
       x="141.35373"
       y="-636.42084"
       style="font-size:9.60000011px;font-style:italic;font-variant:normal;font-weight:bold;font-stretch:normal;text-align:start;line-height:120%;writing-mode:lr;text-anchor:start;font-family:Liberation Serif;-inkscape-font-specification:Liberation Serif Bold Italic"
       sodipodi:linespacing="120%"><tspan
         style="font-size:9.60000011px;font-style:italic;font-variant:normal;font-weight:bold;font-stretch:normal;text-align:start;line-height:120%;writing-mode:lr;text-anchor:start;fill:#000000;fill-opacity:1;fill-rule:nonzero;stroke:none;font-family:Liberation Serif;-inkscape-font-specification:Liberation Serif Bold Italic"
         x="141.35373 149.52876 154.73103 159.93333 165.64133 171.34953 176.05635 180.77354 183.49841 189.20662 194.65663 199.85887 208.034 212.74068 218.19083 222.90793 231.57854 237.28656 242.49916 247.70149"
         y="-636.42084"
         sodipodi:role="line"
         id="tspan100">Подпись плательщика:</tspan></text>
<g
       id="g102"><text
         id="text104"
         transform="matrix(0.9998,0,0,-1,167.76,669.36)"><tspan
           id="tspan106"
           sodipodi:role="line"
           y="0"
           x="0 5.2879338 9.61588 14.183823 16.351795 20.679741 25.247684 29.335634 32.943588 37.031536 42.079475"
           style="font-size:7.99989986px;font-variant:normal;font-weight:normal;writing-mode:lr-tb;fill:#000000;fill-opacity:1;fill-rule:nonzero;stroke:none;font-family:ArialMT;-inkscape-font-specification:ArialMT">Вид платежа</tspan></text>
</g><g
       id="g108"><text
         id="text110"
         transform="matrix(0.9998,0,0,-1,293.04,667.92)"><tspan
           id="tspan112"
           sodipodi:role="line"
           y="0"
           x="0 5.2879338 9.3758831 12.983838"
           style="font-size:7.99989986px;font-variant:normal;font-weight:normal;writing-mode:lr-tb;fill:#000000;fill-opacity:1;fill-rule:nonzero;stroke:none;font-family:ArialMT;-inkscape-font-specification:ArialMT">Дата</tspan></text>
</g><g
       id="g114"><text
         id="text116"
         transform="matrix(0.9998,0,0,-1,428.64,667.92)"><tspan
           id="tspan118"
           sodipodi:role="line"
           y="0"
           x="0 5.7679281 9.3758831 15.135811 20.423744"
           style="font-size:7.99989986px;font-variant:normal;font-weight:normal;writing-mode:lr-tb;fill:#000000;fill-opacity:1;fill-rule:nonzero;stroke:none;font-family:ArialMT;-inkscape-font-specification:ArialMT">Сумма</tspan></text>
</g><g
       id="g120"><text
         id="text122"
         transform="matrix(0.9998,0,0,-1,167.04,655.92)"><tspan
           id="tspan124"
           sodipodi:role="line"
           y="0"
           x="0 6.239922 10.567868 15.135811 19.223761 22.831715 26.919664 29.087637 32.695591 36.783539 40.151497 44.239449 47.847401"
           style="font-size:7.99989986px;font-variant:normal;font-weight:normal;writing-mode:lr-tb;fill:#000000;fill-opacity:1;fill-rule:nonzero;stroke:none;font-family:ArialMT;-inkscape-font-specification:ArialMT">Оплата заказа</tspan></text>
</g><g
       id="g126"><path
         inkscape:connector-curvature="0"
         id="path128"
         style="fill:#ffffff;fill-opacity:1;fill-rule:nonzero;stroke:none"
         d="m 154.08,639.12 88.56,0 0,14.88 -88.56,0 0,-14.88 z" /></g><g
       id="g130"><g
         clip-path="url(#clipPath134)"
         id="g132"><text
           id="text138"
           transform="matrix(0.9998,0,0,-1,169.68,641.28)"><tspan
             id="tspan140"
             sodipodi:role="line"
             y="0"
             x="0 6.7199998 13.44 20.16 26.879999 30.959999 37.68 44.400002 51.119999"
             style="font-size:12px;font-variant:normal;font-weight:bold;writing-mode:lr-tb;fill:#000000;fill-opacity:1;fill-rule:nonzero;stroke:none;font-family:Arial;-inkscape-font-specification:Arial-BoldMT">1220-1229</tspan></text>
</g></g><g
       id="g142"><path
         inkscape:connector-curvature="0"
         id="path144"
         style="fill:#000000;fill-opacity:1;fill-rule:nonzero;stroke:none"
         d="m 260.88,635.04 0.96,0 0,42.96 -0.96,0 0,-42.96 z" /></g><g
       id="g146"><path
         inkscape:connector-curvature="0"
         id="path148"
         style="fill:#000000;fill-opacity:1;fill-rule:nonzero;stroke:none"
         d="m 354.72,635.04 0.96,0 0,42.96 -0.96,0 0,-42.96 z" /></g><g
       id="g180"><g
         clip-path="url(#clipPath184)"
         id="g182"><text
           id="text188"
           transform="matrix(0.9998,0,0,-1,148.32,552.24)"><tspan
             id="tspan190"
             sodipodi:role="line"
             y="0"
             x="0 4.8099518 7.6899233 12.019879 17.05983 19.699802 24.739752 29.779703 34.819653 39.8596 44.899551 49.939499 54.97945 60.019402 65.059349 70.099297 75.139252 80.179199 85.219147 90.259094 95.299049 100.339 105.37894 110.4189 115.45885 120.49879 125.77874 131.53868 138.74861 145.46855 148.10852 153.14847 158.18842 163.22836 168.26831 173.30827 178.34822 183.38817 188.42812"
             style="font-size:9.99989986px;font-variant:normal;font-weight:normal;writing-mode:lr-tb;fill:#000000;fill-opacity:1;fill-rule:nonzero;stroke:none;font-family:TimesNewRomanPSMT;-inkscape-font-specification:TimesNewRomanPSMT">к/сч 30101810000000000920 БИК 044030920</tspan></text>
</g></g><g
       id="g192"><path
         inkscape:connector-curvature="0"
         id="path194"
         style="fill:#000000;fill-opacity:1;fill-rule:nonzero;stroke:none"
         d="m 56.64,444.96 441.36,0 0,0.96 -441.36,0 0,-0.96 z" /></g><g
       id="g196"><path
         inkscape:connector-curvature="0"
         id="path198"
         style="fill:#000000;fill-opacity:1;fill-rule:nonzero;stroke:none"
         d="m 141.36,550.08 359.28,0 0,0.96 -359.28,0 0,-0.96 z" /></g><g
       id="g200"><path
         inkscape:connector-curvature="0"
         id="path202"
         style="fill:#000000;fill-opacity:1;fill-rule:nonzero;stroke:none"
         d="m 141.36,529.92 359.28,0 0,0.96 -359.28,0 0,-0.96 z" /></g><g
       id="g204"><path
         inkscape:connector-curvature="0"
         id="path206"
         style="fill:#000000;fill-opacity:1;fill-rule:nonzero;stroke:none"
         d="m 141.36,510.24 359.28,0 0,0.96 -359.28,0 0,-0.96 z" /></g><g
       id="g208"><path
         inkscape:connector-curvature="0"
         id="path210"
         style="fill:#000000;fill-opacity:1;fill-rule:nonzero;stroke:none"
         d="m 141.36,496.08 359.28,0 0,0.96 -359.28,0 0,-0.96 z" /></g><g
       id="g212"><path
         inkscape:connector-curvature="0"
         id="path214"
         style="fill:#000000;fill-opacity:1;fill-rule:nonzero;stroke:none"
         d="m 141.36,468.96 359.28,0 0,0.96 -359.28,0 0,-0.96 z" /></g><g
       id="g216"><text
         id="text218"
         transform="matrix(0.9998,0,0,-1,277.92,525.12)"><tspan
           id="tspan220"
           sodipodi:role="line"
           y="0"
           x="0 1.926 5.7719998 8.4180002 12.258 15.384 18.27 21.396 24.275999 25.722 27.167999 30.294001 34.133999 37.014 38.459999 39.905998 43.026001 45.666 48.785999 51.431999 54.077999 56.717999 59.598 62.717999 64.164001 67.290001 70.176003 72.821999 75.461998 78.108002 80.994003 83.639999 88.206001 91.332001 94.218002 96.863998"
           style="font-size:6px;font-variant:normal;font-weight:normal;writing-mode:lr-tb;fill:#000000;fill-opacity:1;fill-rule:nonzero;stroke:none;font-family:TimesNewRomanPSMT;-inkscape-font-specification:TimesNewRomanPSMT">(фамилия, имя, отчество плательщика)</tspan></text>
</g><g
       id="g228"><text
         id="text230"
         transform="matrix(0.9998,0,0,-1,167.04,502.08)"><tspan
           id="tspan232"
           sodipodi:role="line"
           y="0"
           x="0 5.2879338 9.61588 14.183823 16.351795 20.679741 25.247684 29.335634 32.943588 37.031536 42.079475"
           style="font-size:7.99989986px;font-variant:normal;font-weight:normal;writing-mode:lr-tb;fill:#000000;fill-opacity:1;fill-rule:nonzero;stroke:none;font-family:ArialMT;-inkscape-font-specification:ArialMT">Вид платежа</tspan></text>
</g><g
       id="g234"><text
         id="text236"
         transform="matrix(0.9998,0,0,-1,292.32,500.64)"><tspan
           id="tspan238"
           sodipodi:role="line"
           y="0"
           x="0 5.2879338 9.3758831 12.983838"
           style="font-size:7.99989986px;font-variant:normal;font-weight:normal;writing-mode:lr-tb;fill:#000000;fill-opacity:1;fill-rule:nonzero;stroke:none;font-family:ArialMT;-inkscape-font-specification:ArialMT">Дата</tspan></text>
</g><g
       id="g240"><text
         id="text242"
         transform="matrix(0.9998,0,0,-1,431.76,500.64)"><tspan
           id="tspan244"
           sodipodi:role="line"
           y="0"
           x="0 5.7679281 9.3758831 14.895814 20.415745"
           style="font-size:7.99989986px;font-variant:normal;font-weight:normal;writing-mode:lr-tb;fill:#000000;fill-opacity:1;fill-rule:nonzero;stroke:none;font-family:ArialMT;-inkscape-font-specification:ArialMT">Сумма</tspan></text>
</g><g
       id="g246"><text
         id="text248"
         transform="matrix(0.9998,0,0,-1,166.32,488.64)"><tspan
           id="tspan250"
           sodipodi:role="line"
           y="0"
           x="0 6.239922 10.567868 15.135811 19.223761 22.831715 26.919664 29.087637 32.695591 36.783539 40.151497 44.239449 47.847401"
           style="font-size:7.99989986px;font-variant:normal;font-weight:normal;writing-mode:lr-tb;fill:#000000;fill-opacity:1;fill-rule:nonzero;stroke:none;font-family:ArialMT;-inkscape-font-specification:ArialMT">Оплата заказа</tspan></text>
</g><g
       id="g252"><path
         inkscape:connector-curvature="0"
         id="path254"
         style="fill:#000000;fill-opacity:1;fill-rule:nonzero;stroke:none"
         d="m 260.16,468 0.96,0 0,42.72 -0.96,0 0,-42.72 z" /></g><g
       id="g256"><path
         inkscape:connector-curvature="0"
         id="path258"
         style="fill:#000000;fill-opacity:1;fill-rule:nonzero;stroke:none"
         d="m 354,468 0.96,0 0,42.72 -0.96,0 0,-42.72 z" /></g><g
       id="g260"><text
         id="text262"
         transform="matrix(0.9998,0,0,-1,83.04,620.16)"><tspan
           id="tspan264"
           sodipodi:role="line"
           y="0"
           x="0 4.5679431 8.8958883 12.975838 17.055786 21.383732"
           style="font-size:7.99989986px;font-style:italic;font-variant:normal;writing-mode:lr-tb;fill:#000000;fill-opacity:1;fill-rule:nonzero;stroke:none;font-family:Arial;-inkscape-font-specification:Arial-ItalicMT">Кассир</tspan></text>
</g><g
       id="g266"><text
         id="text268"
         transform="matrix(0.9998,0,0,-1,83.04,450.72)"><tspan
           id="tspan270"
           sodipodi:role="line"
           y="0"
           x="0 4.5679431 8.8958883 12.975838 17.055786 21.383732"
           style="font-size:7.99989986px;font-style:italic;font-variant:normal;writing-mode:lr-tb;fill:#000000;fill-opacity:1;fill-rule:nonzero;stroke:none;font-family:Arial;-inkscape-font-specification:Arial-ItalicMT">Кассир</tspan></text>
</g><g
       id="g272"><text
         id="text274"
         transform="matrix(0.9998,0,0,-1,414.48,642.96)"><tspan
           id="tspan276"
           sodipodi:role="line"
           y="0"
           x="0 6.7199998 13.44 20.16 26.879999 30.24 36.959999"
           style="font-size:12px;font-variant:normal;font-weight:bold;writing-mode:lr-tb;fill:#000000;fill-opacity:1;fill-rule:nonzero;stroke:none;font-family:Arial;-inkscape-font-specification:Arial-BoldMT">2870,00</tspan></text>
</g><g
       id="g278"><path
         inkscape:connector-curvature="0"
         id="path280"
         style="fill:#ffffff;fill-opacity:1;fill-rule:nonzero;stroke:none"
         d="m 152.64,471.84 88.56,0 0,14.88 -88.56,0 0,-14.88 z" /></g><g
       id="g282"><g
         clip-path="url(#clipPath286)"
         id="g284"><text
           id="text290"
           transform="matrix(0.9998,0,0,-1,168.24,474.24)"><tspan
             id="tspan292"
             sodipodi:role="line"
             y="0"
             x="0 6.7199998 13.44 20.16 26.879999 30.959999 37.68 44.400002 51.119999"
             style="font-size:12px;font-variant:normal;font-weight:bold;writing-mode:lr-tb;fill:#000000;fill-opacity:1;fill-rule:nonzero;stroke:none;font-family:Arial;-inkscape-font-specification:Arial-BoldMT">1220-1229</tspan></text>
</g></g><g
       id="g294"><text
         id="text296"
         transform="matrix(0.9998,0,0,-1,460.32,642.24)"><tspan
           id="tspan298"
           sodipodi:role="line"
           y="0"
           x="0 7.4400001 13.932 21.372"
           style="font-size:12px;font-variant:normal;font-weight:bold;writing-mode:lr-tb;fill:#000000;fill-opacity:1;fill-rule:nonzero;stroke:none;font-family:Arial;-inkscape-font-specification:Arial-BoldMT">руб.</tspan></text>
</g><g
       id="g300"><text
         id="text302"
         transform="matrix(0.9998,0,0,-1,414.48,477.84)"><tspan
           id="tspan304"
           sodipodi:role="line"
           y="0"
           x="0 6.7199998 13.44 20.16 26.879999 30.24 36.959999"
           style="font-size:12px;font-variant:normal;font-weight:bold;writing-mode:lr-tb;fill:#000000;fill-opacity:1;fill-rule:nonzero;stroke:none;font-family:Arial;-inkscape-font-specification:Arial-BoldMT">2870,00</tspan></text>
</g><g
       id="g306"><text
         id="text308"
         transform="matrix(0.9998,0,0,-1,460.32,477.12)"><tspan
           id="tspan310"
           sodipodi:role="line"
           y="0"
           x="0 7.4400001 13.932 21.372"
           style="font-size:12px;font-variant:normal;font-weight:bold;writing-mode:lr-tb;fill:#000000;fill-opacity:1;fill-rule:nonzero;stroke:none;font-family:Arial;-inkscape-font-specification:Arial-BoldMT">руб.</tspan></text>
</g><g
       id="g312"><text
         id="text314"
         transform="matrix(0.9998,0,0,-1,57.6,88.3199)"><tspan
           id="tspan316"
           sodipodi:role="line"
           y="0"
           x="0 7.209928 12.019879 17.779821 22.339777 27.379726 33.139668 38.189617 42.999569 48.03952 53.799461 59.559406 65.319344 67.95932 73.719261 78.529213 81.169189 85.979141 90.539093 96.299034 99.659004 102.29898 105.65894 110.69889 115.73885 120.77879 124.13876 129.17871 134.21866 139.25861 142.61858 147.65852 152.69847 156.05844 161.09839 166.13834 168.77831 173.82826 178.63821 183.44817 186.08813 191.12808 196.16805"
           style="font-size:9.99989986px;font-variant:normal;font-weight:bold;writing-mode:lr-tb;fill:#000000;fill-opacity:1;fill-rule:nonzero;stroke:none;font-family:TimesNewRomanPS;-inkscape-font-specification:TimesNewRomanPS-BoldMT">Консультации по тел: (812)327-32-40 доб.205</tspan></text>
</g><g
       id="g318"><text
         id="text320"
         transform="matrix(0.9998,0,0,-1,57.6,74.16)"><tspan
           id="tspan322"
           sodipodi:role="line"
           y="0"
           x="0 6.719933 10.079899 18.249817 23.289766 26.169739"
           style="font-size:9.99989986px;font-variant:normal;font-weight:bold;writing-mode:lr-tb;fill:#000000;fill-opacity:1;fill-rule:nonzero;stroke:none;font-family:TimesNewRomanPS;-inkscape-font-specification:TimesNewRomanPS-BoldMT">E-mail</tspan></text>
</g><g
       id="g324"><text
         id="text326"
         transform="matrix(0.9998,0,0,-1,57.6,60)"><tspan
           id="tspan328"
           sodipodi:role="line"
           y="0"
           x="0 7.9199209 12.479876 18.239817 23.04977 28.809711 34.569653 40.329597 45.139549 49.699505"
           style="font-size:9.99989986px;font-variant:normal;font-weight:bold;writing-mode:lr-tb;fill:#000000;fill-opacity:1;fill-rule:nonzero;stroke:none;font-family:TimesNewRomanPS;-inkscape-font-specification:TimesNewRomanPS-BoldMT">Исполнител</tspan></text>
</g><g
       id="g330"><text
         id="text332"
         transform="matrix(0.9998,0,0,-1,119.76,60.24)"><tspan
           id="tspan334"
           sodipodi:role="line"
           y="0"
           x="0 10.089899 14.649854 19.689802 24.249758 28.579714 33.379665 37.709621 42.519573 47.809521 53.099468 55.739441 66.059341 71.099289 76.389236"
           style="font-size:9.99989986px;font-variant:normal;font-weight:normal;writing-mode:lr-tb;fill:#000000;fill-opacity:1;fill-rule:nonzero;stroke:none;font-family:TimesNewRomanPSMT;-inkscape-font-specification:TimesNewRomanPSMT">Шалаевский Юрий</tspan></text>
</g><g
       id="g336"><path
         inkscape:connector-curvature="0"
         id="path338"
         style="fill:#000000;fill-opacity:1;fill-rule:nonzero;stroke:none"
         d="m 59.52,100.8 439.92,0 0,0.96 -439.92,0 0,-0.96 z" /></g><g
       id="g340"><text
         id="text342"
         transform="matrix(0.9998,0,0,-1,91.44,74.4)"><tspan
           id="tspan344"
           sodipodi:role="line"
           y="0"
           x="0 3.8499615 9.1299086 13.689863 16.569834 21.129789 25.459745 30.269697 34.119659 39.159607 43.729561 53.08947 58.129417 61.009392 66.049339 69.8993 74.939247 79.749199 82.389175 85.989143"
           style="font-size:9.99989986px;font-variant:normal;font-weight:normal;writing-mode:lr-tb;fill:#000000;fill-opacity:1;fill-rule:nonzero;stroke:none;font-family:TimesNewRomanPSMT;-inkscape-font-specification:TimesNewRomanPSMT">shalaevsky@kipspb.ru</tspan></text>
</g><text
       xml:space="preserve"
       style="font-size:12.80000019px;font-style:normal;font-variant:normal;font-weight:bold;font-stretch:normal;text-align:start;line-height:1000%;letter-spacing:0px;word-spacing:0px;writing-mode:lr-tb;text-anchor:start;fill:#000000;fill-opacity:1;stroke:none;font-family:Liberation Serif;-inkscape-font-specification:Liberation Serif Bold"
       x="298.94559"
       y="-771.3858"
       id="text3738"
       sodipodi:linespacing="1000%"
       transform="scale(1,-1)"><tspan
         sodipodi:role="line"
         id="tspan3740"
         x="298.94559"
         y="-771.3858"
         template-id="firm1">_____________________</tspan></text>
<text
       id="text42-1"
       transform="scale(0.9999,-1.0001)"
       x="149.01125"
       y="-598.66858"
       style="font-size:14.39999962px;font-style:normal;font-variant:normal;font-weight:bold;font-stretch:normal;text-align:start;line-height:125%;writing-mode:lr-tb;text-anchor:start;display:inline;font-family:Liberation Serif;-inkscape-font-specification:Liberation Serif Bold"
       sodipodi:linespacing="125%"><tspan
         sodipodi:role="line"
         id="tspan3482-9"
         x="149.01125"
         y="-598.66858">Получатель платежа:</tspan></text>
<text
       xml:space="preserve"
       style="font-size:12.80000019px;font-style:normal;font-variant:normal;font-weight:bold;font-stretch:normal;text-align:start;line-height:1000%;letter-spacing:0px;word-spacing:0px;writing-mode:lr-tb;text-anchor:start;fill:#000000;fill-opacity:1;stroke:none;display:inline;font-family:Liberation Serif;-inkscape-font-specification:Liberation Serif Bold"
       x="299.2814"
       y="-598.30048"
       id="text3738-7"
       sodipodi:linespacing="1000%"
       transform="scale(1,-1)"><tspan
         sodipodi:role="line"
         id="tspan3740-4"
         x="299.2814"
         y="-598.30048"
         template-id="firm2">_____________________</tspan></text>
<text
       xml:space="preserve"
       style="font-size:16px;font-style:normal;font-variant:normal;font-weight:normal;font-stretch:normal;line-height:1000%;letter-spacing:0px;word-spacing:0px;fill:#000000;fill-opacity:1;stroke:none;font-family:Liberation Serif;-inkscape-font-specification:Liberation Serif"
       x="221.25"
       y="104.99999"
       id="text3156"
       sodipodi:linespacing="1000%"
       transform="matrix(0.8,0,0,-0.8,0,842)"><tspan
         sodipodi:role="line"
         id="tspan3158"
         x="221.25"
         y="104.99999"
         template-id="inn1">0000000000</tspan></text>
<text
       xml:space="preserve"
       style="font-size:12.80000019px;font-style:normal;font-variant:normal;font-weight:normal;font-stretch:normal;text-align:start;line-height:1000%;letter-spacing:0px;word-spacing:0px;writing-mode:lr-tb;text-anchor:start;fill:#000000;fill-opacity:1;stroke:none;font-family:Liberation Serif;-inkscape-font-specification:Liberation Serif"
       x="241"
       y="-758.20001"
       id="text3160"
       sodipodi:linespacing="1000%"
       transform="scale(1,-1)"><tspan
         sodipodi:role="line"
         id="tspan3164"
         x="241"
         y="-758.20001">; КПП:</tspan></text>
<text
       xml:space="preserve"
       style="font-size:16px;font-style:normal;font-variant:normal;font-weight:normal;font-stretch:normal;line-height:1000%;letter-spacing:0px;word-spacing:0px;fill:#000000;fill-opacity:1;stroke:none;font-family:Liberation Serif;-inkscape-font-specification:Liberation Serif"
       x="353.5"
       y="104.99999"
       id="text3166"
       sodipodi:linespacing="1000%"
       transform="matrix(0.8,0,0,-0.8,0,842)"><tspan
         sodipodi:role="line"
         id="tspan3168"
         x="353.5"
         y="104.99999"
         template-id="kpp1">111111111</tspan></text>
<text
       transform="scale(0.9999,-1.0001)"
       id="text48-4"
       x="148.94504"
       y="-585.84088"
       style="font-size:11.99880028px;font-style:normal;font-variant:normal;font-weight:normal;font-stretch:normal;text-align:start;line-height:125%;writing-mode:lr-tb;text-anchor:start;display:inline;font-family:Liberation Serif;-inkscape-font-specification:Liberation Serif"
       sodipodi:linespacing="125%"><tspan
         style="font-size:11.99880028px;font-style:normal;font-variant:normal;font-weight:normal;font-stretch:normal;text-align:start;line-height:125%;writing-mode:lr-tb;text-anchor:start;fill:#000000;fill-opacity:1;fill-rule:nonzero;stroke:none;font-family:Liberation Serif;-inkscape-font-specification:Liberation Serif"
         x="148.94504 156.15424 163.12347 170.09271 172.9724"
         y="-585.84088"
         sodipodi:role="line"
         id="tspan50-2">ИНН:</tspan></text>
<text
       xml:space="preserve"
       style="font-size:12.80000019px;font-style:normal;font-variant:normal;font-weight:normal;font-stretch:normal;line-height:1000%;letter-spacing:0px;word-spacing:0px;fill:#000000;fill-opacity:1;stroke:none;display:inline;font-family:Liberation Serif;-inkscape-font-specification:Liberation Serif"
       x="177.89297"
       y="-586.19379"
       id="text3156-3"
       sodipodi:linespacing="1000%"
       transform="scale(1,-1)"><tspan
         sodipodi:role="line"
         id="tspan3158-7"
         x="177.89297"
         y="-586.19379"
         template-id="inn2">0000000000</tspan></text>
<text
       xml:space="preserve"
       style="font-size:12.80000019px;font-style:normal;font-variant:normal;font-weight:normal;font-stretch:normal;text-align:start;line-height:1000%;letter-spacing:0px;word-spacing:0px;writing-mode:lr-tb;text-anchor:start;fill:#000000;fill-opacity:1;stroke:none;display:inline;font-family:Liberation Serif;-inkscape-font-specification:Liberation Serif"
       x="241.89297"
       y="-586.3938"
       id="text3160-7"
       sodipodi:linespacing="1000%"
       transform="scale(1,-1)"><tspan
         sodipodi:role="line"
         id="tspan3164-9"
         x="241.89297"
         y="-586.3938">; КПП:</tspan></text>
<text
       xml:space="preserve"
       style="font-size:12.80000019px;font-style:normal;font-variant:normal;font-weight:normal;font-stretch:normal;line-height:1000%;letter-spacing:0px;word-spacing:0px;fill:#000000;fill-opacity:1;stroke:none;display:inline;font-family:Liberation Serif;-inkscape-font-specification:Liberation Serif"
       x="283.69299"
       y="-586.19379"
       id="text3166-9"
       sodipodi:linespacing="1000%"
       transform="scale(1,-1)"><tspan
         sodipodi:role="line"
         id="tspan3168-3"
         x="283.69299"
         y="-586.19379"
         template-id="kpp2">111111111</tspan></text>
<text
       transform="scale(1.0322125,-0.96879276)"
       id="text98-8"
       x="140.90427"
       y="-462.32785"
       style="font-size:9.60000038px;font-style:italic;font-variant:normal;font-weight:bold;font-stretch:normal;text-align:start;line-height:120.00000477%;writing-mode:lr-tb;text-anchor:start;display:inline;font-family:Liberation Serif;-inkscape-font-specification:Liberation Serif Bold Italic"
       sodipodi:linespacing="120%"><tspan
         style="font-size:9.60000038px;font-style:italic;font-variant:normal;font-weight:bold;font-stretch:normal;text-align:start;line-height:120.00000477%;writing-mode:lr-tb;text-anchor:start;fill:#000000;fill-opacity:1;fill-rule:nonzero;stroke:none;font-family:Liberation Serif;-inkscape-font-specification:Liberation Serif Bold Italic"
         x="140.90427 149.0793 154.28157 159.48387 165.19186 170.90007 175.60689 180.32408 183.04895 188.75716 194.20717 199.40941 207.58453 212.29121 217.74136 222.45847 231.12909 236.8371 242.04968 247.25201"
         y="-462.32785"
         sodipodi:role="line"
         id="tspan100-5">Подпись плательщика:</tspan></text>
<text
       xml:space="preserve"
       style="font-size:16px;font-style:normal;font-variant:normal;font-weight:normal;font-stretch:normal;line-height:1000%;letter-spacing:0px;word-spacing:0px;fill:#000000;fill-opacity:1;stroke:none;font-family:Liberation Serif;-inkscape-font-specification:Liberation Serif"
       x="218"
       y="119"
       id="text3185"
       sodipodi:linespacing="1000%"
       transform="matrix(0.8,0,0,-0.8,0,842)"><tspan
         sodipodi:role="line"
         id="tspan3187"
         x="218"
         y="119" template-id="account_bank1">22222</tspan></text>
<text
       transform="scale(0.9999,-1.0001)"
       id="text54-0"
       x="149.16713"
       y="-575.04651"
       style="font-size:11.19999981px;font-style:normal;font-variant:normal;font-weight:normal;font-stretch:normal;text-align:start;line-height:125%;writing-mode:lr-tb;text-anchor:start;display:inline;font-family:Liberation Sans;-inkscape-font-specification:Liberation Sans"
       sodipodi:linespacing="125%"><tspan
         y="-575.04651"
         x="149.16713"
         sodipodi:role="line"
         id="tspan3183-7">р/сч</tspan></text>
<text
       xml:space="preserve"
       style="font-size:12.80000019px;font-style:normal;font-variant:normal;font-weight:normal;font-stretch:normal;line-height:1000%;letter-spacing:0px;word-spacing:0px;fill:#000000;fill-opacity:1;stroke:none;display:inline;font-family:Liberation Serif;-inkscape-font-specification:Liberation Serif"
       x="175.23222"
       y="-574.54401"
       id="text3185-6"
       sodipodi:linespacing="1000%"
       transform="scale(1,-1)"><tspan
         sodipodi:role="line"
         id="tspan3187-7"
         x="175.23222"
         y="-574.54401" template-id="account_bank2">22222</tspan></text>
</g></svg>
